HIERARCHY
ROOT hip
{
  OFFSET 0.0 0.0 0.0
  CHANNELS 6 Xposition Yposition Zposition Zrotation Yrotation Xrotation
  JOINT torso
  {
    OFFSET 0.0 0.0 0.0
    CHANNELS 3 Zrotation Xrotation Yrotation
    JOINT neck
    {
      OFFSET -8.059630999999968 325.56260699999996 64.6221310000002
      CHANNELS 3 Zrotation Xrotation Yrotation
      JOINT head
      {
        OFFSET 34.685424000000125 375.1179809999999 232.79357900000002
        CHANNELS 3 Zrotation Xrotation Yrotation
        End Site
        {
          OFFSET 0.0 0.0 0.0
        }
      }
    }
    JOINT left_collar
    {
      OFFSET -8.059630999999968 325.56260699999996 64.6221310000002
      CHANNELS 3 Zrotation Xrotation Yrotation
      JOINT left_upper_arm
      {
        OFFSET -124.124665 -15.370300999999927 25.582641999999964
        CHANNELS 3 Zrotation Xrotation Yrotation
        JOINT left_forearm
        {
          OFFSET -268.19913399999996 105.06054699999993 114.74548300000004
          CHANNELS 3 Zrotation Xrotation Yrotation
          JOINT left_hand
          {
            OFFSET -235.82003099999991 -10.198180999999977 -38.67455999999993
            CHANNELS 3 Zrotation Xrotation Yrotation
            End Site
            {
              OFFSET 0.0 0.0 0.0
            }
          }
        }
      }
    }
    JOINT right_collar
    {
      OFFSET -8.059630999999968 325.56260699999996 64.6221310000002
      CHANNELS 3 Zrotation Xrotation Yrotation
      JOINT right_upper_arm
      {
        OFFSET 162.73931899999997 -2.8598030000000563 26.244994999999903
        CHANNELS 3 Zrotation Xrotation Yrotation
        JOINT right_forearm
        {
          OFFSET 284.6506340000001 103.07031299999994 145.84521499999994
          CHANNELS 3 Zrotation Xrotation Yrotation
          JOINT right_hand
          {
            OFFSET 226.332337 -12.198241999999937 -49.27258299999994
            CHANNELS 3 Zrotation Xrotation Yrotation
            End Site
            {
              OFFSET 0.0 0.0 0.0
            }
          }
        }
      }
    }
  }
}
MOTION
Frames: 19
Frame Time: 0.01
390.13967131139407 229.53536446491873 743.9366205255126 -2.152211278404163 5.050058949213343 -5.082037055960203 1.360620049473641 -5.500159959092175 -0.46739250539740984 -0.19990260465334866 1.1891237090462663 0.01210593346017364 0.0 0.0 0.0 0.27824546517568344 -0.08736500249619619 1.147351296942877 1.0296529957585456 4.41402925243459 10.864805088321706 2.9913316184709924 -0.4776915093094477 -0.19326094226058899 0.0 0.0 0.0 -0.3371675807033603 0.1280858604839448 3.5602078060011735 3.18132768155883 0.781959663156758 -6.217327042182977 -4.574371453517249 -1.58006779141713 -5.988053009875911 0.0 0.0 0.0
390.16849930745843 229.54565075195978 743.8514746971506 -2.1559752774926757 5.064260345053865 -5.088035402891374 1.358541553984709 -5.505828737276066 -0.4670860797193204 -0.20134734753117633 1.1819797201008144 0.013670544877842675 0.0 0.0 0.0 0.2824591196232972 -0.08713111155819576 1.1520406722363674 1.025492223757259 4.410505133606545 10.858410338945657 2.8906142495373963 -0.4719527411070941 -0.039359530555962176 0.0 0.0 0.0 -0.33723881151364676 0.1282430526904848 3.567095768860248 3.18676059780142 0.7831755683766983 -6.226911898535408 -4.5821774597411435 -1.5818272480579492 -5.984133569237728 0.0 0.0 0.0
390.1973246955086 229.55559817545856 743.7662980489549 -2.15979900967349 5.07872490834902 -5.0936759576244075 1.3565695828411979 -5.511861110520884 -0.4668184238102295 -0.2027874953412605 1.1750843487399758 0.015208831320986544 0.0 0.0 0.0 0.2866537975520963 -0.08687343530451354 1.156509009098414 1.0210270402134354 4.406792575093845 10.851746202302559 2.790421683546434 -0.46594477464848266 0.11331830175680507 0.0 0.0 0.0 -0.3374031951818583 0.12841136797723193 3.5736518179771743 3.1927384763487607 0.7840784646811458 -6.236313307884294 -4.590138132796771 -1.5836876215725977 -5.980812353412893 0.0 0.0 0.0
390.2260242098162 229.5649702898044 743.6810121981285 -2.1637220058979967 5.093329904076711 -5.098853893600902 1.3547518693352802 -5.518193269967357 -0.4665989415838921 -0.20419029767771288 1.1684946633379247 0.016695260970991502 0.0 0.0 0.0 0.29079559663378524 -0.08659380092815366 1.1607184081450583 1.0162146821368392 4.4028627815288734 10.84476835589246 2.6917742149051396 -0.4597360870748814 0.2631881874007873 0.0 0.0 0.0 -0.33762114990720704 0.1285819588474856 3.5798182380994064 3.199214392173037 0.7846612582204155 -6.245457147860386 -4.598172270913568 -1.5856498939938333 -5.978324305676949 0.0 0.0 0.0
390.2544836313792 229.5735279098928 743.595502505004 -2.1677862364332356 5.107944338211954 -5.1034881698977 1.3531346840072185 -5.524753681124922 -0.466436420876042 -0.20553155878997173 1.162262920483406 0.018110009202563306 0.0 0.0 0.0 0.29485559794201754 -0.08629611765639393 1.164655298705233 1.0110161728473703 4.398690591188456 10.837439591915388 2.5956606395454207 -0.4534037018201074 0.40871261175744084 0.0 0.0 0.0 -0.3378517554644329 0.12874632481233556 3.5855669259485805 3.2061261329187603 0.7849275859940008 -6.25427961534478 -4.606213361615306 -1.5877178582133658 -5.976891130777468 0.0 0.0 0.0
390.28259714498347 229.5810333327907 743.5096278723146 -2.1720345995366235 5.122429871383015 -5.10752540811202 1.3517613863841207 -5.531463572710391 -0.4663386966681891 -0.20679692146585998 1.1564350787901552 0.01943989038488212 0.0 0.0 0.0 0.29881075630588316 -0.08598651709496213 1.168332884365714 1.0053992896525579 4.394256507274647 10.829733006082298 2.503015216126932 -0.4470303701610291 0.5484322635120163 0.0 0.0 0.0 -0.33805398824262156 0.12889661770040042 3.5909025021707017 3.2133943082800243 0.7848937417406165 -6.2627300747010795 -4.614210700806803 -1.5898974155355408 -5.976711176595316 0.0 0.0 0.0
390.31026601035177 229.58725428304965 743.4232300749366 -2.1765093505463042 5.13664174467637 -5.110942065799313 1.3506710174209773 -5.538237293713843 -0.46631231828397895 -0.20798238349226741 1.151049226172251 0.02067882638542156 0.0 0.0 0.0 0.30264447061167066 -0.0856733721572726 1.1717921276411578 0.9993417118609585 4.389548614066881 10.821634695227292 2.4146946101679534 -0.44070114723118037 0.6809963477389058 0.0 0.0 0.0 -0.33818795729990747 0.12902591060174062 3.595863640776089 3.2209202584481194 0.7845907136329713 -6.2707739553991795 -4.622128535242849 -1.59219529469276 -5.97794900395091 0.0 0.0 0.0
390.3373965638067 229.59196741095707 743.33614208665 -2.1812505271461924 5.150429717783766 -5.1137447045680515 1.3498969712771953 -5.544982531634083 -0.46636222975112374 -0.20909397026011686 1.14613395287433 0.021827801435060024 0.0 0.0 0.0 0.30634681296256244 -0.08536718151749534 1.1751011427557532 0.9928342391604977 4.384564290378015 10.813145808852816 2.33145572794653 -0.43449952747909326 0.8051904723950726 0.0 0.0 0.0 -0.3382160994234756 0.12912841813011172 3.6005224416698702 3.228583829878846 0.7840662833649277 -6.278395646148021 -4.629943026347806 -1.594617163140575 -5.980724900631087 0.0 0.0 0.0
390.3638975856737 229.59496117175323 743.2481950001271 -2.1862944284002412 5.163639038739954 -5.115968274457975 1.3494657782197674 -5.551600422312042 -0.4664914722628473 -0.2101465446883079 1.1417067161042356 0.02289428719308159 0.0 0.0 0.0 0.30991442239563666 -0.08508031397118364 1.1783529650919822 0.9858839520710654 4.3793116434157096 10.804283846433211 2.2539356076460306 -0.4285033652332672 0.9199603666294893 0.0 0.0 0.0 -0.3381042898536844 0.12919965799379393 3.604981793394566 3.236241119352255 0.7833871158784445 -6.285601318768791 -4.63763696810463 -1.5971651393147843 -5.985104612443907 0.0 0.0 0.0
390.38967709287687 229.59603792032567 743.1592232982372 -2.1916722025663664 5.1761114903517 -5.117672449070425 1.3493960259138926 -5.557985627877467 -0.4667009182806295 -0.21116179222147174 1.1377722572435676 0.023891155290056795 0.0 0.0 0.0 0.31335008886004795 -0.0848266141548486 1.181661751512164 0.9785171739608588 4.3738105999407875 10.795083142977342 2.182634539633117 -0.42278083756953383 1.0244297080821259 0.0 0.0 0.0 -0.3378228333713387 0.12923654786659827 3.6093707838671087 3.2437223216057536 0.7826407475476322 -6.292421600651951 -4.645192342994334 -1.5998347560695712 -5.991089574831334 0.0 0.0 0.0
390.41463864393677 229.59501507256365 743.0690684213005 -2.197408591917804 5.187686582055787 -5.11893613763008 1.3496974453239061 -5.564026503613049 -0.4669890482184979 -0.2121654689001702 1.134321148864417 0.0248351240850138 0.0 0.0 0.0 0.316662063879616 -0.08462087733793675 1.185157530567219 0.9707820898743067 4.368093607283584 10.785594534807856 2.1179033238578935 -0.4173866988099299 1.1179107365141123 0.0 0.0 0.0 -0.33734731734773343 0.12923743690750705 3.6138383060849457 3.2508298472518855 0.7819373600702291 -6.298913999685381 -4.6525809476155 -1.6026114655467791 -5.9986079330503435 0.0 0.0 0.0
390.4386772704541 229.59172521307852 742.9775807753032 -2.2035208728776374 5.198202970147251 -5.119850367260723 1.350370190017643 -5.569605508247358 -0.4673517825605394 -0.21318404138262928 1.1313285648867553 0.025744810086057807 0.0 0.0 0.0 0.3198631363802843 -0.08447820643114533 1.1889796666453498 0.9627508820896923 4.362205912425657 10.775884239430411 2.059935158781582 -0.4123590335521696 1.1999069390361563 0.0 0.0 0.0 -0.33665933088642935 0.1292020772439605 3.618545069516696 3.2573369014985203 0.7814112098630321 -6.305164970322246 -4.659753449893586 -1.6054668109666497 -6.007506637388134 0.0 0.0 0.0
390.46167517114264 229.58601506859463 742.884620520862 -2.2100180181991047 5.207500190780516 -5.120509779369243 1.3514043415419348 -5.574600029472882 -0.46778238391916904 -0.21424088013110432 1.1287533803498746 0.02663847319489559 0.0 0.0 0.0 0.3229695097830608 -0.08441326935850618 1.1932692373492064 0.9545212543979474 4.356205401323639 10.76603201417431 2.0087622353303547 -0.4077166520033556 1.2701077097662716 0.0 0.0 0.0 -0.33574707677188587 0.12913154635947802 3.623654274374593 3.262986727025543 0.7812215710526225 -6.311291496828726 -4.666627345598949 -1.6083544196755333 -6.017544890846121 0.0 0.0 0.0
390.4834973213083 229.57774331424145 742.7900576419888 -2.2169000964552175 5.215420778906277 -5.121003033169245 1.3527796749027294 -5.578883793894788 -0.4682714438804307 -0.21535219384365098 1.1265377129054441 0.0275315609470218 0.0 0.0 0.0 0.32599951566099544 -0.08443948002154149 1.1981605621905793 0.9462172324648305 4.350161991790646 10.756128678039097 1.9642567627377905 -0.40345720170176375 1.3283754116894237 0.0 0.0 0.0 -0.33460591935304645 0.1290281357096917 3.629321251873062 3.26749271457874 0.7815530473570197 -6.31744206576802 -4.673074359120543 -1.611205993160471 -6.028389206588012 0.0 0.0 0.0
390.5039871666556 229.56677723409547 742.6937718878769 -2.2241579145161356 5.221812823862701 -5.121402466084859 1.354465714803251 -5.582329006617915 -0.46880696788724047 -0.2165229163075276 1.1246070126767669 0.028434171599563685 0.0 0.0 0.0 0.32897220398003924 -0.08456813125709389 1.2037721692116636 0.9379891414710025 4.3441565808045945 10.746273091699305 1.926135903659866 -0.39955600441342737 1.3747256845786349 0.0 0.0 0.0 -0.33323891749738677 0.12889522340709622 3.635682430146878 3.270539571015066 0.782615117011079 -6.323796909532427 -4.678907878633267 -1.6139274826783148 -6.039610298633796 0.0 0.0 0.0
390.52296259159385 229.55298831734854 742.5956531974024 -2.23177290229166 5.226532979971219 -5.1217534209001725 1.3564221060078896 -5.584809321202809 -0.4693745680981348 -0.21774277380642243 1.1228707900790378 0.029348567857412182 0.0 0.0 0.0 0.33190585987764887 -0.08480751274766006 1.2101975381151602 0.9300126720295756 4.338279551336036 10.736568694574004 1.8939699418402343 -0.39596557380093106 1.4093021596769761 0.0 0.0 0.0 -0.33165738668674494 0.1287371492132399 3.6428440482880635 3.2717857048610606 0.7846407958069339 -6.330567424595305 -4.6838710262580685 -1.616395643138075 -6.050681984256305 0.0 0.0 0.0
390.54021238203217 229.53624693684162 742.4956031639645 -2.2397172362101108 5.2294499094760765 -5.122063701079166 1.358599312056991 -5.586203679523976 -0.4699577697372765 -0.21898276651133305 1.1212240448927016 0.030266878624039564 0.0 0.0 0.0 0.33481650831669635 -0.08516204989077783 1.2174960007572342 0.9224869532897472 4.332628846655102 10.727119698847934 1.8671929375655318 -0.3926157327824941 1.432346962991448 0.0 0.0 0.0 -0.3298815194725766 0.12855910824317512 3.650871093993315 3.2708669427287633 0.7878843336590212 -6.337994693138016 -4.6876259392695045 -1.618455153294185 -6.060982228032559 0.0 0.0 0.0
390.5554934374401 229.51641632352363 742.3935379971473 -2.2479541980602344 5.230448088503624 -5.122293649551559 1.3609396463283905 -5.586400988966721 -0.4705384312921829 -0.22019228654173956 1.1195494259650647 0.03116912259403213 0.0 0.0 0.0 0.3377164756481542 -0.085631500842438 1.225684201603604 0.9156315638374576 4.327307624802383 10.718027042398734 1.8451151306164553 -0.3894142306503646 1.444168513686337 0.0 0.0 0.0 -0.32794106979280985 0.12836707559252092 3.65977696970872 3.2674016277026174 0.7926178954401656 -6.346347054397816 -4.689744783013781 -1.619916478556613 -6.069796414373056 0.0 0.0 0.0
390.5685290167505 229.4933461118129 742.2893933021207 -2.256438767336347 5.2294318599522756 -5.122347361592464 1.3633786272797859 -5.585305528007757 -0.47109727302967075 -0.22129706978212707 1.1177201092101197 0.03202167555258814 0.0 0.0 0.0 0.34061307736684576 -0.08621024885005422 1.2347285201197802 0.9096824315881972 4.322421514814546 10.709384207853601 1.826936411004952 -0.3862477579382753 1.4451081560935712 0.0 0.0 0.0 -0.3258760754588184 0.128167767735287 3.66951439519381 3.2609970788380123 0.7991272125916306 -6.355916676709731 -4.689702937527974 -1.6205546354846248 -6.076322902552518 0.0 0.0 0.0
